<svg xmlns="http://www.w3.org/2000/svg" viewBox="0 0 420 180" role="img" aria-labelledby="title desc">
  <title id="title">Bridges Grove BG oak tree mark</title>
  <desc id="desc">Red B and G letters with the Bridges Grove green tree emblem between them.</desc>
  <g fill="#b41624">
    <path d="M18 25h70c43 0 67 16 67 45 0 18-10 31-29 38 25 6 37 21 37 42 0 33-26 50-72 50H18V25Zm47 34v34h22c15 0 22-6 22-17 0-12-8-17-24-17H65Zm0 65v41h26c18 0 26-7 26-21 0-13-9-20-27-20H65Z"/>
    <path d="M402 102v82c-22 14-49 21-78 21-56 0-95-36-95-91 0-56 40-94 99-94 30 0 54 8 73 24l-29 32c-12-10-25-14-42-14-31 0-52 20-52 51 0 32 20 51 50 51 11 0 21-2 29-6v-23h-36v-33h81Z"/>
  </g>
  <g transform="translate(151 30)">
    <circle cx="59" cy="59" r="57" fill="#7a0f1c"/>
    <circle cx="59" cy="59" r="48" fill="#24733f" stroke="#fff" stroke-width="5"/>
    <path d="M59 93V58m0 20-17-11m17 2 16-12" fill="none" stroke="#fff" stroke-width="7" stroke-linecap="round" stroke-linejoin="round"/>
    <path d="M42 69c-10 0-17-7-17-15 0-8 7-14 15-15 3-8 10-13 19-13s16 5 19 13c9 1 15 7 15 15 0 8-7 15-17 15" fill="none" stroke="#fff" stroke-width="7" stroke-linecap="round" stroke-linejoin="round"/>
  </g>
</svg>
